<svg width="644" height="400" viewBox="0 0 644 400" fill="none" xmlns="http://www.w3.org/2000/svg">
<path d="M547.114 192.682C600.322 192.682 643.455 149.548 643.455 96.3408C643.455 43.1332 600.322 0 547.114 0C493.907 0 450.773 43.1332 450.773 96.3408C450.773 149.548 493.907 192.682 547.114 192.682Z" fill="#FF9537"/>
<path d="M498.359 279.17L267.986 25.9628C255.835 12.1355 238.992 3.30027 220.709 1.16291C202.426 -0.97445 183.999 3.73762 168.986 14.3894C160.857 20.4104 154.082 28.0713 149.101 36.8764C144.12 45.6814 141.044 55.4342 140.071 65.5036C139.098 75.573 140.25 85.7345 143.453 95.3304C146.656 104.926 151.838 113.743 158.664 121.209L160.072 122.929L166.953 130.436L168.83 132.469C171.15 138.398 172.318 144.715 172.271 151.081C171.39 165.754 164.913 179.529 154.176 189.568C143.439 199.607 129.259 205.144 114.56 205.038C108.634 203.887 102.611 203.311 96.5743 203.317C83.307 203.371 70.1919 206.147 58.0404 211.473C45.889 216.799 34.9598 224.562 25.9291 234.282C16.8985 244.001 9.95855 255.471 5.53873 267.98C1.11892 280.49 -0.686715 293.773 0.233553 307.009C2.39923 330.433 12.9664 352.283 29.9841 368.525C47.0018 384.766 69.3209 394.303 92.8208 395.373C116.743 396.181 140.101 388.011 158.305 372.47C176.509 356.929 188.241 335.14 191.195 311.388C191.195 309.042 192.133 306.696 192.289 304.35C192.446 302.004 192.289 300.909 192.289 299.189C192.289 297.469 192.289 293.871 192.289 291.369C191.32 283.931 192.039 276.37 194.395 269.249C196.751 262.127 200.682 255.629 205.896 250.237C217.971 238.899 233.906 232.581 250.469 232.564C254.087 232.552 257.699 232.866 261.261 233.502L265.64 238.194L389.663 374.416C401.812 388.237 418.642 397.08 436.916 399.245C455.19 401.41 473.62 396.745 488.662 386.146C496.731 380.048 503.436 372.33 508.347 363.488C513.258 354.647 516.266 344.876 517.179 334.803C518.092 324.731 516.89 314.578 513.649 304.998C510.408 295.417 505.2 286.62 498.359 279.17Z" fill="#3D4EDD"/>
</svg>
