<svg width="140" height="30" viewBox="0 0 140 30" fill="none" xmlns="http://www.w3.org/2000/svg">
<g clip-path="url(#clip0_1385_3543)">
<path d="M119.974 22.4821H118.507C118.26 22.4845 118.022 22.3879 117.845 22.2135C117.668 22.039 117.566 21.8007 117.562 21.5505V0.93167C117.563 0.807422 117.588 0.68463 117.636 0.570392C117.685 0.456154 117.755 0.352733 117.843 0.266106C117.931 0.17948 118.035 0.111365 118.149 0.0656974C118.263 0.0200299 118.385 -0.00228476 118.507 4.2975e-05H119.974C120.221 -0.00231693 120.459 0.0942447 120.636 0.268717C120.813 0.44319 120.915 0.681455 120.919 0.93167V21.5417C120.918 21.6664 120.893 21.7896 120.845 21.9043C120.797 22.019 120.727 22.123 120.639 22.2104C120.551 22.2977 120.447 22.3666 120.333 22.4133C120.219 22.4599 120.097 22.4833 119.974 22.4821Z" fill="white"/>
<path d="M51.3059 6.34557C52.3484 6.35967 53.3767 6.59312 54.3254 7.03111C55.3085 7.46662 56.1462 8.18086 56.7376 9.08772C57.4121 10.1809 57.742 11.4562 57.6833 12.7439V21.7086C57.6822 21.816 57.6602 21.922 57.6186 22.0208C57.577 22.1195 57.5166 22.209 57.4409 22.2841C57.3651 22.3591 57.2755 22.4184 57.1772 22.4584C57.0788 22.4984 56.9737 22.5184 56.8677 22.5172H55.1324C55.0264 22.5184 54.9212 22.4984 54.8229 22.4584C54.7245 22.4184 54.6349 22.3591 54.5592 22.2841C54.4835 22.209 54.4231 22.1195 54.3815 22.0208C54.3399 21.922 54.3179 21.816 54.3167 21.7086V13.3591C54.371 12.7481 54.3021 12.1323 54.1141 11.5491C53.9262 10.9659 53.6232 10.4275 53.2235 9.96662C52.8457 9.61004 52.4021 9.33254 51.9182 9.15005C51.4343 8.96755 50.9195 8.88365 50.4035 8.90316C49.6325 8.90602 48.8779 9.12834 48.2256 9.54475C47.5155 9.98004 46.92 10.5832 46.4903 11.3025C46.0375 12.0661 45.806 12.9432 45.8222 13.8338V21.6735C45.821 21.7808 45.799 21.8869 45.7574 21.9856C45.7158 22.0843 45.6554 22.1738 45.5797 22.2489C45.504 22.324 45.4144 22.3832 45.316 22.4232C45.2177 22.4632 45.1125 22.4832 45.0065 22.4821H43.2712C43.1652 22.4832 43.0601 22.4632 42.9617 22.4232C42.8634 22.3832 42.7738 22.324 42.698 22.2489C42.6223 22.1738 42.5619 22.0843 42.5203 21.9856C42.4787 21.8869 42.4567 21.7808 42.4556 21.6735V7.61118C42.4567 7.50384 42.4787 7.39778 42.5203 7.29905C42.5619 7.20032 42.6223 7.11086 42.698 7.03577C42.7738 6.96069 42.8634 6.90145 42.9617 6.86144C43.0601 6.82143 43.1652 6.80144 43.2712 6.8026H45.0065C45.1125 6.80144 45.2177 6.82143 45.316 6.86144C45.4144 6.90145 45.504 6.96069 45.5797 7.03577C45.6554 7.11086 45.7158 7.20032 45.7574 7.29905C45.799 7.39778 45.821 7.50384 45.8222 7.61118V9.58869C46.0102 9.04156 46.3363 8.55375 46.7679 8.17367C47.3376 7.62656 47.9986 7.18615 48.7202 6.87291C49.5374 6.51972 50.4174 6.34023 51.3059 6.34557Z" fill="white"/>
<path d="M68.4164 18.1491L73.2754 6.89052C73.3508 6.72184 73.473 6.57894 73.627 6.47911C73.781 6.37928 73.9602 6.3268 74.143 6.32802H75.4012C75.5593 6.30844 75.7198 6.33336 75.8649 6.40005C76.01 6.46674 76.1342 6.57262 76.2238 6.70608C76.3135 6.83954 76.3651 6.99543 76.373 7.15664C76.381 7.31785 76.3449 7.47817 76.2689 7.62L66.438 28.8717C66.3751 29.0031 66.2762 29.1136 66.1532 29.1899C66.0302 29.2662 65.8881 29.3052 65.7439 29.3023H64.0085C63.886 29.3064 63.7644 29.2791 63.655 29.223C63.5457 29.1669 63.452 29.0837 63.3828 28.9811C63.3136 28.8786 63.2711 28.7601 63.2591 28.6365C63.2471 28.5129 63.2662 28.3882 63.3144 28.274L65.0151 24.609C65.4537 23.6461 65.6859 22.5999 65.6964 21.5395C65.7068 20.479 65.4953 19.4284 65.0758 18.4568L60.4771 7.59363C60.4078 7.45264 60.3772 7.29538 60.3885 7.13831C60.3998 6.98124 60.4525 6.83012 60.5412 6.70077C60.6299 6.57141 60.7513 6.46857 60.8926 6.403C61.034 6.33743 61.1901 6.31153 61.3448 6.32802H62.6723C62.8578 6.33016 63.0386 6.38699 63.1927 6.49157C63.3468 6.59615 63.4675 6.74394 63.54 6.91688L67.9825 18.1491C67.996 18.1969 68.0244 18.2389 68.0636 18.2688C68.1027 18.2987 68.1504 18.3149 68.1994 18.3149C68.2485 18.3149 68.2962 18.2987 68.3353 18.2688C68.3744 18.2389 68.4029 18.1969 68.4164 18.1491Z" fill="white"/>
<path d="M82.1258 14.2293C82.0544 15.6211 82.4287 16.9991 83.193 18.158C83.6092 18.6181 84.1153 18.9854 84.6792 19.2368C85.2431 19.4881 85.8524 19.6179 86.4685 19.6179C87.0846 19.6179 87.6939 19.4881 88.2578 19.2368C88.8217 18.9854 89.3278 18.6181 89.744 18.158C90.5013 16.9962 90.8722 15.6197 90.8026 14.2293V7.26846C90.8037 7.14381 90.8291 7.0206 90.8772 6.90588C90.9254 6.79115 90.9953 6.68716 91.0832 6.59983C91.171 6.51251 91.2749 6.44356 91.3891 6.39692C91.5032 6.35029 91.6253 6.32688 91.7483 6.32804H93.154C93.277 6.32688 93.3991 6.35029 93.5133 6.39692C93.6274 6.44356 93.7313 6.51251 93.8192 6.59983C93.907 6.68716 93.977 6.79115 94.0251 6.90588C94.0733 7.0206 94.0986 7.14381 94.0998 7.26846V14.6951C94.1367 16.0967 93.839 17.4867 93.2321 18.7468C92.648 19.8992 91.743 20.8527 90.629 21.489C89.3429 22.1362 87.9263 22.4731 86.4902 22.4731C85.0541 22.4731 83.6375 22.1362 82.3514 21.489C81.2356 20.8552 80.3299 19.901 79.7483 18.7468C79.1404 17.487 78.8427 16.0968 78.8807 14.6951V7.26846C78.8818 7.14381 78.9072 7.0206 78.9553 6.90588C79.0035 6.79115 79.0734 6.68716 79.1613 6.59983C79.2491 6.51251 79.353 6.44356 79.4672 6.39692C79.5813 6.35029 79.7034 6.32688 79.8264 6.32804H81.2147C81.3378 6.32688 81.4599 6.35029 81.574 6.39692C81.6881 6.44356 81.7921 6.51251 81.8799 6.59983C81.9677 6.68716 82.0377 6.79115 82.0858 6.90588C82.134 7.0206 82.1594 7.14381 82.1605 7.26846V14.2293H82.1258Z" fill="white"/>
<path d="M101.353 14.2293C101.272 15.6172 101.634 16.9948 102.386 18.158C102.802 18.6181 103.308 18.9855 103.872 19.2368C104.436 19.4881 105.045 19.6179 105.661 19.6179C106.277 19.6179 106.887 19.4881 107.451 19.2368C108.015 18.9855 108.521 18.6181 108.937 18.158C109.694 16.9962 110.065 15.6197 109.995 14.2293V7.26846C109.996 7.14077 110.023 7.01459 110.073 6.8975C110.124 6.78041 110.197 6.6748 110.288 6.58699C110.38 6.49919 110.488 6.431 110.606 6.38651C110.724 6.34201 110.85 6.32213 110.976 6.32805H112.382C112.505 6.32689 112.627 6.35029 112.741 6.39693C112.855 6.44356 112.959 6.51251 113.047 6.59984C113.135 6.68716 113.205 6.79116 113.253 6.90588C113.301 7.0206 113.326 7.14381 113.327 7.26846V14.6951C113.364 16.0967 113.067 17.4867 112.46 18.7468C111.876 19.8992 110.971 20.8527 109.857 21.489C108.57 22.1362 107.154 22.4731 105.718 22.4731C104.282 22.4731 102.865 22.1362 101.579 21.489C100.463 20.8552 99.5574 19.901 98.9759 18.7468C98.3679 17.487 98.0702 16.0968 98.1082 14.6951V7.26846C98.1093 7.14381 98.1347 7.0206 98.1828 6.90588C98.231 6.79116 98.301 6.68716 98.3888 6.59984C98.4766 6.51251 98.5806 6.44356 98.6947 6.39693C98.8088 6.35029 98.9309 6.32689 99.054 6.32805H100.442C100.565 6.32689 100.687 6.35029 100.802 6.39693C100.916 6.44356 101.02 6.51251 101.107 6.59984C101.195 6.68716 101.265 6.79116 101.313 6.90588C101.362 7.0206 101.387 7.14381 101.388 7.26846V14.2293H101.353Z" fill="white"/>
<path d="M132.069 18.1491L136.928 6.89044C137.004 6.72177 137.126 6.57886 137.28 6.47903C137.434 6.3792 137.613 6.32673 137.796 6.32795H139.045C139.204 6.30837 139.364 6.33329 139.509 6.39998C139.654 6.46667 139.778 6.57255 139.868 6.70601C139.958 6.83947 140.009 6.99535 140.017 7.15657C140.025 7.31778 139.989 7.47809 139.913 7.61993L130.091 28.8716C130.028 29.003 129.929 29.1135 129.806 29.1898C129.683 29.2661 129.541 29.3051 129.397 29.3022H127.661C127.539 29.3063 127.417 29.2791 127.308 29.2229C127.198 29.1668 127.105 29.0836 127.036 28.9811C126.966 28.8786 126.924 28.76 126.912 28.6364C126.9 28.5128 126.919 28.3881 126.967 28.2739L128.668 24.6089C129.112 23.6485 129.35 22.6036 129.367 21.5432C129.383 20.4827 129.177 19.4308 128.763 18.4567L124.13 7.5584C124.061 7.41741 124.03 7.26015 124.041 7.10308C124.053 6.94601 124.105 6.7949 124.194 6.66554C124.283 6.53619 124.404 6.43334 124.545 6.36777C124.687 6.3022 124.843 6.2763 124.998 6.2928H126.325C126.511 6.29493 126.691 6.35176 126.846 6.45634C127 6.56092 127.12 6.70872 127.193 6.88166L131.635 18.1139C131.649 18.1593 131.676 18.1994 131.713 18.2291C131.749 18.2588 131.794 18.2766 131.841 18.2804C131.887 18.2842 131.934 18.2737 131.975 18.2503C132.016 18.2269 132.048 18.1916 132.069 18.1491Z" fill="white"/>
<path d="M30.343 10.828C33.2949 10.828 35.6879 8.40405 35.6879 5.41399C35.6879 2.42392 33.2949 0 30.343 0C27.391 0 24.998 2.42392 24.998 5.41399C24.998 8.40405 27.391 10.828 30.343 10.828Z" fill="white"/>
<path d="M27.6353 15.6882L14.8544 1.45895C14.1803 0.681912 13.2459 0.185407 12.2315 0.0652952C11.2172 -0.0548165 10.1949 0.209984 9.36203 0.808572C8.91102 1.14693 8.53518 1.57745 8.25883 2.07226C7.98249 2.56706 7.8118 3.11514 7.75782 3.681C7.70384 4.24686 7.76776 4.8179 7.94546 5.35715C8.12315 5.8964 8.41066 6.39185 8.78936 6.81142L8.86745 6.9081L9.24923 7.32997L9.35335 7.44422C9.48208 7.77738 9.54686 8.13235 9.54424 8.4901C9.49538 9.31467 9.13606 10.0888 8.54036 10.653C7.94467 11.2171 7.15799 11.5283 6.34251 11.5223C6.01374 11.4576 5.67958 11.4253 5.34468 11.4256C4.60862 11.4286 3.881 11.5846 3.20685 11.8839C2.5327 12.1832 1.92635 12.6195 1.42534 13.1657C0.92433 13.7119 0.539308 14.3564 0.294101 15.0594C0.0488933 15.7624 -0.051282 16.5089 -0.000226302 17.2527C0.119924 18.569 0.706181 19.7969 1.65031 20.7096C2.59444 21.6224 3.83268 22.1583 5.13643 22.2184C6.46359 22.2638 7.75952 21.8047 8.76945 20.9314C9.77937 20.058 10.4303 18.8336 10.5941 17.4988C10.5941 17.3669 10.6462 17.2351 10.6549 17.1033C10.6635 16.9714 10.6549 16.9099 10.6549 16.8132C10.6549 16.7166 10.6549 16.5144 10.6549 16.3738C10.6011 15.9558 10.641 15.5309 10.7717 15.1307C10.9024 14.7305 11.1205 14.3653 11.4098 14.0623C12.0796 13.4252 12.9637 13.0701 13.8826 13.0691C14.0834 13.0685 14.2837 13.0861 14.4813 13.1219L14.7243 13.3855L21.605 21.0407C22.279 21.8174 23.2127 22.3143 24.2265 22.436C25.2404 22.5577 26.2628 22.2955 27.0974 21.6999C27.545 21.3572 27.917 20.9235 28.1895 20.4266C28.4619 19.9297 28.6288 19.3807 28.6795 18.8146C28.7301 18.2486 28.6634 17.6781 28.4836 17.1397C28.3038 16.6013 28.0149 16.1069 27.6353 15.6882Z" fill="white"/>
</g>
<defs>
<clipPath id="clip0_1385_3543">
<rect width="140" height="29.3023" fill="white"/>
</clipPath>
</defs>
</svg>
